<?xml version="1.0" encoding="utf-8"?>
<!-- Generator: Adobe Illustrator 22.1.0, SVG Export Plug-In . SVG Version: 6.00 Build 0)  -->
<svg version="1.1" id="Layer_1" xmlns="http://www.w3.org/2000/svg" xmlns:xlink="http://www.w3.org/1999/xlink" x="0px" y="0px"
	 viewBox="0 0 579.3 183.7" style="enable-background:new 0 0 579.3 183.7;" xml:space="preserve">
<style type="text/css">
	.st0{fill:#8CC1F2;}
	.st1{fill:#428DBD;}
</style>
<path class="st0" d="M89.4,43c4.3,2.3,7.7,5.4,10.2,9.4s3.8,8.5,3.8,13.4c0,4.7-1.3,8.9-3.8,12.6s-5.9,6.6-10.2,8.7
	c6.1,1.7,11,4.7,14.5,9.1s5.3,9.9,5.3,16.6c0,5.9-1.4,11.2-4.1,15.9c-2.8,4.7-6.5,8.3-11.4,10.9c-4.8,2.6-10.4,3.9-16.6,3.9H43.3
	c-1.8,0-3.2-0.5-4.3-1.4s-1.6-2.2-1.6-3.8V44.8c0-1.5,0.5-2.7,1.5-3.7s2.2-1.5,3.7-1.5H75C80.3,39.7,85.1,40.8,89.4,43z M88.2,78.4
	c3.4-3.1,5.1-7.3,5.1-12.6c0-5.1-1.7-9.1-5.1-12c-3.4-2.8-7.8-4.3-13.3-4.3H47.8V83H75C80.4,83,84.8,81.5,88.2,78.4z M93,128
	c4-3.8,6.1-8.8,6.1-15.1c0-6-2-10.8-6.1-14.4c-4-3.6-9.3-5.4-15.8-5.4H47.8v40.6h29.4C83.7,133.6,89,131.7,93,128z M170.4,41.1
	c1-1,2.2-1.5,3.7-1.5s2.7,0.5,3.7,1.5s1.5,2.2,1.5,3.7v64.4c0,5.1,1.3,9.7,3.9,13.8c2.6,4,6.3,7.2,11,9.4c4.7,2.3,10.1,3.4,16.1,3.4
	c5.9,0,11.2-1.1,15.8-3.4c4.6-2.3,8.2-5.4,10.8-9.4s3.9-8.6,3.9-13.8V44.8c0-1.5,0.5-2.7,1.5-3.7s2.2-1.5,3.7-1.5s2.7,0.5,3.7,1.5
	s1.5,2.2,1.5,3.7v64.4c0,7-1.8,13.3-5.3,18.8s-8.4,9.9-14.6,13c-6.2,3.1-13.3,4.7-21.2,4.7c-8,0-15.1-1.6-21.4-4.7
	c-6.3-3.1-11.2-7.4-14.7-13c-3.5-5.5-5.3-11.8-5.3-18.8V44.8C168.9,43.3,169.4,42.1,170.4,41.1L170.4,41.1z M381.1,41.1
	c5.2,1.9,10.3,4.8,15.2,8.9c1,0.7,1.5,1.7,1.5,3.1c0,0.7-0.2,1.4-0.5,1.9c-0.4,0.6-0.8,1-1.5,1.3c-0.2,0.6-0.6,1.1-1.2,1.5
	s-1.3,0.5-2,0.5c-1.3,0-2.4-0.4-3.3-1.2c-3.5-3.1-7.2-5.4-11.3-6.8c-4.1-1.4-8.8-2.1-14.2-2.1c-7.5,0-14.4,2-20.8,5.9
	s-11.5,9.2-15.2,15.9c-3.8,6.7-5.7,13.8-5.7,21.6c0,7.9,1.9,15.2,5.6,21.8s8.8,11.9,15.2,15.8c6.4,3.9,13.4,5.9,20.9,5.9
	c9.7,0,18.4-3.1,26.2-9.3c1-0.7,2-1.1,2.9-1.1c1.3,0,2.5,0.5,3.5,1.4s1.5,2.2,1.5,3.7c0,1.4-0.5,2.7-1.5,3.7
	c-8.3,7.6-19.2,11.4-32.6,11.4c-9.4,0-18.1-2.4-26-7.2s-14.2-11.3-18.8-19.4c-4.7-8.2-7-17.1-7-26.8c0-9.6,2.3-18.5,6.9-26.6
	c4.6-8.2,10.9-14.6,18.8-19.4s16.6-7.2,26.1-7.2C370,38.3,375.8,39.3,381.1,41.1L381.1,41.1z"/>
<path class="st1" d="M536.9,143c-2.8,0-5-2.2-5-5V96l-37.4-45l-34.6,44.9V138c0,2.8-2.2,5-5,5s-5-2.2-5-5V94.2c0-1.1,0.4-2.2,1-3.1
	l39.5-51.2c0.9-1.2,2.4-1.9,3.9-1.9s3,0.6,3.9,1.8L540.7,91c0.7,0.9,1.2,2,1.2,3.2V138C541.9,140.8,539.6,143,536.9,143z"/>
<g>
	<path class="st1" d="M533.9,99h-80c-2.2,0-4-1.8-4-4s1.8-4,4-4h80c2.2,0,4,1.8,4,4S536.1,99,533.9,99z"/>
</g>
</svg>
